<svg data-v-423bf9ae="" xmlns="http://www.w3.org/2000/svg" viewBox="0 0 402 90" class="iconLeft"><!----><!----><!----><g data-v-423bf9ae="" id="083c87b4-c4b3-464f-8bc3-1c9c450b15a4" fill="black" transform="matrix(5.672835826873779,0,0,5.672835826873779,103.64641571044922,14.641026496887207)"><path d="M2.06 10.18L2.06 10.18L2.06 0.81C2.06 0.56 1.85 0.35 1.58 0.35C1.33 0.35 1.12 0.56 1.12 0.81L1.12 10.18C1.12 10.43 1.33 10.64 1.58 10.64C1.85 10.64 2.06 10.43 2.06 10.18ZM5.99 9.90L5.99 9.90L3.84 6.83C3.58 6.45 3.00 6.64 3.00 7.11L3.00 10.18C3.00 10.43 3.21 10.64 3.46 10.64C3.72 10.64 3.92 10.43 3.92 10.18L3.92 8.58L5.22 10.44C5.38 10.65 5.66 10.70 5.87 10.56C6.09 10.40 6.13 10.12 5.99 9.90ZM5.22 0.55L5.22 0.55L3.92 2.41L3.92 0.81C3.92 0.56 3.72 0.35 3.46 0.35C3.21 0.35 3.00 0.56 3.00 0.81L3.00 3.86C3.00 4.03 3.05 4.17 3.19 4.27C3.40 4.42 3.70 4.37 3.84 4.16L5.99 1.08C6.13 0.87 6.09 0.59 5.87 0.43C5.66 0.28 5.38 0.34 5.22 0.55ZM7.50 0.55L7.50 0.55L4.24 5.22C4.13 5.39 4.13 5.61 4.24 5.77L7.50 10.44C7.66 10.65 7.94 10.70 8.15 10.56C8.37 10.40 8.41 10.12 8.27 9.90L5.19 5.49L8.27 1.08C8.41 0.87 8.37 0.59 8.15 0.43C7.94 0.28 7.66 0.34 7.50 0.55ZM12.38 7.84L12.38 7.84L13.73 7.84C14 7.84 14.22 7.63 14.22 7.36C14.22 7.29 14.21 7.24 14.18 7.18L13.50 5.50C13.40 5.28 13.13 5.17 12.88 5.26C12.66 5.35 12.54 5.63 12.63 5.87L13.05 6.90L12.38 6.90C12.12 6.90 11.91 7.10 11.91 7.36C11.91 7.63 12.12 7.84 12.38 7.84ZM11.69 10.26L11.69 10.26L11.93 9.72L14.20 9.72L14.42 10.26C14.52 10.51 14.80 10.61 15.04 10.53C15.27 10.42 15.37 10.15 15.29 9.91L14.95 9.10C14.90 8.92 14.71 8.76 14.50 8.76L11.61 8.76L11.61 8.76C11.44 8.76 11.26 8.89 11.17 9.06L10.84 9.91C10.74 10.15 10.85 10.42 11.09 10.53C11.34 10.61 11.61 10.50 11.69 10.26ZM9.69 10.26L9.69 10.26L13.06 1.76L16.44 10.26C16.53 10.50 16.81 10.61 17.05 10.53C17.29 10.42 17.40 10.15 17.30 9.91L13.50 0.36C13.45 0.25 13.37 0.14 13.23 0.10C13.01 0 12.73 0.11 12.63 0.36L8.81 9.91C8.72 10.15 8.85 10.42 9.07 10.53C9.31 10.61 9.58 10.50 9.69 10.26ZM24.67 9.70L24.67 9.70L19.68 9.70L19.68 0.81C19.68 0.56 19.47 0.35 19.22 0.35C18.96 0.35 18.75 0.56 18.75 0.81L18.75 10.18C18.75 10.43 18.96 10.64 19.22 10.64L24.67 10.64C24.93 10.64 25.13 10.43 25.13 10.18C25.13 9.91 24.93 9.70 24.67 9.70ZM20.62 0.81L20.62 0.81L20.62 8.30C20.62 8.55 20.83 8.76 21.08 8.76L24.67 8.76C24.93 8.76 25.13 8.55 25.13 8.30C25.13 8.04 24.93 7.83 24.67 7.83L21.56 7.83L21.56 0.81C21.56 0.56 21.35 0.35 21.08 0.35C20.83 0.35 20.62 0.56 20.62 0.81ZM32.16 2.23L32.16 2.23L29.19 2.23C28.92 2.23 28.71 2.42 28.71 2.69L28.71 4.56C28.71 4.82 28.92 5.03 29.19 5.03L31.29 5.03C31.56 5.03 31.77 4.82 31.77 4.56C31.77 4.30 31.56 4.09 31.29 4.09L29.65 4.09L29.65 3.15L32.16 3.15C32.42 3.15 32.63 2.94 32.63 2.69C32.63 2.42 32.42 2.23 32.16 2.23ZM31.29 5.96L31.29 5.96L29.19 5.96C28.92 5.96 28.71 6.17 28.71 6.43L28.71 8.30C28.71 8.55 28.92 8.76 29.19 8.76L32.16 8.76C32.42 8.76 32.63 8.55 32.63 8.30C32.63 8.04 32.42 7.83 32.16 7.83L29.65 7.83L29.65 6.90L31.29 6.90C31.56 6.90 31.77 6.69 31.77 6.43C31.77 6.17 31.56 5.96 31.29 5.96ZM32.16 9.70L32.16 9.70L27.79 9.70L27.79 1.29L32.16 1.29C32.42 1.29 32.63 1.08 32.63 0.81C32.63 0.56 32.42 0.35 32.16 0.35L27.31 0.35C27.06 0.35 26.85 0.56 26.85 0.81L26.85 10.18C26.85 10.43 27.06 10.64 27.31 10.64L32.16 10.64C32.42 10.64 32.63 10.43 32.63 10.18C32.63 9.91 32.42 9.70 32.16 9.70ZM39.82 2.23L39.82 2.23L36.85 2.23C36.58 2.23 36.37 2.42 36.37 2.69L36.37 4.56C36.37 4.82 36.58 5.03 36.85 5.03L38.95 5.03C39.21 5.03 39.42 4.82 39.42 4.56C39.42 4.30 39.21 4.09 38.95 4.09L37.31 4.09L37.31 3.15L39.82 3.15C40.08 3.15 40.29 2.94 40.29 2.69C40.29 2.42 40.08 2.23 39.82 2.23ZM38.95 5.96L38.95 5.96L36.85 5.96C36.58 5.96 36.37 6.17 36.37 6.43L36.37 8.30C36.37 8.55 36.58 8.76 36.85 8.76L39.82 8.76C40.08 8.76 40.29 8.55 40.29 8.30C40.29 8.04 40.08 7.83 39.82 7.83L37.31 7.83L37.31 6.90L38.95 6.90C39.21 6.90 39.42 6.69 39.42 6.43C39.42 6.17 39.21 5.96 38.95 5.96ZM39.82 9.70L39.82 9.70L35.45 9.70L35.45 1.29L39.82 1.29C40.08 1.29 40.29 1.08 40.29 0.81C40.29 0.56 40.08 0.35 39.82 0.35L34.97 0.35C34.72 0.35 34.51 0.56 34.51 0.81L34.51 10.18C34.51 10.43 34.72 10.64 34.97 10.64L39.82 10.64C40.08 10.64 40.29 10.43 40.29 10.18C40.29 9.91 40.08 9.70 39.82 9.70ZM50.60 10.16L50.60 10.16L50.60 4.24C50.60 3.99 50.39 3.78 50.12 3.78C49.95 3.78 49.81 3.86 49.73 3.99L47.32 7.42L44.94 3.98C44.79 3.77 44.48 3.71 44.27 3.86C44.14 3.95 44.07 4.10 44.07 4.24L44.07 4.24L44.07 10.16C44.07 10.43 44.28 10.64 44.53 10.64C44.81 10.64 45.02 10.43 45.02 10.16L45.02 5.75L46.94 8.51C46.97 8.55 47.01 8.60 47.05 8.64C47.26 8.78 47.57 8.72 47.73 8.51L49.64 5.75L49.64 10.16C49.64 10.43 49.85 10.64 50.12 10.64C50.39 10.64 50.60 10.43 50.60 10.16ZM43.12 10.16L43.12 10.16L43.12 0.67C43.12 0.41 42.91 0.20 42.64 0.20C42.38 0.20 42.17 0.41 42.17 0.67L42.17 10.16C42.17 10.43 42.38 10.64 42.64 10.64C42.91 10.64 43.12 10.43 43.12 10.16ZM52.50 10.16L52.50 10.16L52.50 0.67C52.50 0.41 52.29 0.20 52.01 0.20C51.76 0.20 51.55 0.41 51.55 0.67L51.55 10.16C51.55 10.43 51.76 10.64 52.01 10.64C52.29 10.64 52.50 10.43 52.50 10.16ZM49.91 0.39L49.91 0.39L47.32 4.10L44.76 0.39C44.60 0.18 44.30 0.13 44.09 0.28C43.88 0.43 43.83 0.73 43.97 0.94L46.94 5.18C46.97 5.24 47.01 5.28 47.05 5.31C47.26 5.47 47.57 5.42 47.73 5.19L50.69 0.94C50.83 0.73 50.79 0.43 50.58 0.28C50.36 0.13 50.06 0.18 49.91 0.39Z"></path></g><!----><g data-v-423bf9ae="" id="1984ee87-f57e-4122-a489-f0431c6b9488" transform="matrix(2.8125,0,0,2.8125,0,1.0290032625198364)" stroke="none" fill="black"><path d="M0 31.984h32v-32H0v32zm2-30h28v28H2v-28z"></path><path d="M6.439 16.831h8.959l-4.48-7.741zM16.602 13.331h8.959L21.082 5.59zM6.439 26.41h8.959l-4.48-7.741zM16.602 22.91h8.959l-4.479-7.741z"></path></g><!----></svg>