<svg data-v-423bf9ae="" xmlns="http://www.w3.org/2000/svg" viewBox="0 0 359 90" class="iconLeft"><!----><!----><!----><g data-v-423bf9ae="" id="068d89c1-5d4f-4f4d-9c06-2456249b4780" fill="#FFFFFF" transform="matrix(4.552351951599121,0,0,4.552351951599121,140.53717041015625,-8.444610595703125)"><path d="M2.46 5.15L2.46 15.37L2.56 15.37Q2.97 13.78 3.75 12.37Q4.52 10.96 5.63 10.96L5.63 10.96Q6.08 10.96 6.34 11.31Q6.61 11.66 6.61 12.17L6.61 12.17Q6.61 13.02 5.88 13.80Q5.15 14.59 4.21 15.15L4.21 15.15Q4.28 15.25 4.70 15.86Q5.11 16.46 5.60 16.94Q6.09 17.42 6.44 17.42L6.44 17.42Q6.94 17.42 7.35 16.94L7.35 16.94L7.57 17.18Q7.27 17.65 6.73 17.94Q6.19 18.23 5.67 18.23L5.67 18.23Q5.07 18.23 4.58 17.78Q4.10 17.33 3.54 16.55L3.54 16.55Q3.09 15.93 2.87 15.75L2.87 15.75L2.74 15.85Q2.65 16.17 2.58 16.80Q2.51 17.43 2.49 17.92L2.49 17.92L1.20 18.28L1.20 5.68L2.46 5.15ZM4.76 12.47Q4.34 12.47 3.92 13.18Q3.50 13.89 3.05 14.95L3.05 14.95Q2.83 15.47 2.80 15.50L2.80 15.50Q3.74 15.11 4.49 14.42Q5.25 13.73 5.25 13.03L5.25 13.03Q5.25 12.85 5.12 12.66Q4.98 12.47 4.76 12.47L4.76 12.47ZM12.07 11.09Q12.75 11.09 13.36 11.38Q13.97 11.68 14.25 12.28L14.25 12.28L13.24 12.82Q13.02 12.50 12.63 12.24Q12.24 11.98 11.79 11.98L11.79 11.98Q11.07 11.98 10.54 12.36Q10.01 12.73 9.73 13.36Q9.45 13.99 9.45 14.76L9.45 14.76Q9.45 15.86 9.83 16.55Q10.21 17.25 11.02 17.25L11.02 17.25Q12.17 17.25 12.60 16.32Q13.03 15.40 13.03 14.31L13.03 14.31L13.03 13.68L14.27 13.16L14.27 16.84Q14.27 17.02 14.36 17.19Q14.46 17.36 14.66 17.36L14.66 17.36Q15.06 17.36 15.40 16.80L15.40 16.80L15.61 17.02Q15.44 17.50 15.02 17.83Q14.60 18.16 14.18 18.16L14.18 18.16Q13.58 18.16 13.29 17.71Q13.01 17.26 13.01 16.52L13.01 16.52L12.98 16.52Q12.63 17.26 12.03 17.76Q11.44 18.26 10.78 18.26L10.78 18.26Q9.59 18.26 8.98 17.44Q8.37 16.62 8.37 15.25L8.37 15.25Q8.37 14.15 8.86 13.20Q9.35 12.24 10.20 11.66Q11.05 11.09 12.07 11.09L12.07 11.09ZM18.28 5.15L18.28 16.91Q18.28 17.08 18.38 17.23Q18.48 17.39 18.72 17.39L18.72 17.39Q18.91 17.39 19.13 17.21Q19.35 17.04 19.46 16.84L19.46 16.84L19.70 17.05Q19.46 17.51 19.04 17.84Q18.62 18.16 18.20 18.16L18.20 18.16Q17.02 18.16 17.02 16.74L17.02 16.74L17.02 5.68L18.28 5.15ZM24.54 10.96Q25.30 10.96 25.80 11.37Q26.31 11.77 26.31 12.57L26.31 12.57Q26.31 13.22 25.61 14.01Q24.92 14.80 23.99 15.46Q23.06 16.11 22.40 16.38L22.40 16.38Q22.75 16.94 23.20 17.16Q23.65 17.37 24.25 17.37L24.25 17.37Q24.92 17.37 25.59 17.03Q26.25 16.69 26.68 16.14L26.68 16.14L26.85 16.44Q26.17 17.32 25.40 17.79Q24.63 18.26 23.51 18.26L23.51 18.26Q22.65 18.26 21.98 17.84Q21.31 17.42 20.93 16.71Q20.55 16.00 20.55 15.18L20.55 15.18Q20.55 14.14 21.11 13.16Q21.67 12.18 22.60 11.57Q23.52 10.96 24.54 10.96L24.54 10.96ZM23.81 11.84Q23.20 11.84 22.71 12.24Q22.23 12.63 21.96 13.24Q21.69 13.86 21.69 14.52L21.69 14.52Q21.69 15.39 22.09 16.00L22.09 16.00Q22.68 15.74 23.37 15.20Q24.05 14.66 24.53 14.03Q25.00 13.40 25.00 12.88L25.00 12.88Q25.00 11.84 23.81 11.84L23.81 11.84ZM31.85 10.96Q32.61 10.96 33.11 11.37Q33.61 11.77 33.61 12.57L33.61 12.57Q33.61 13.22 32.92 14.01Q32.23 14.80 31.30 15.46Q30.37 16.11 29.71 16.38L29.71 16.38Q30.06 16.94 30.51 17.16Q30.95 17.37 31.56 17.37L31.56 17.37Q32.23 17.37 32.89 17.03Q33.56 16.69 33.99 16.14L33.99 16.14L34.16 16.44Q33.47 17.32 32.70 17.79Q31.93 18.26 30.81 18.26L30.81 18.26Q29.96 18.26 29.29 17.84Q28.62 17.42 28.24 16.71Q27.86 16.00 27.86 15.18L27.86 15.18Q27.86 14.14 28.42 13.16Q28.98 12.18 29.90 11.57Q30.83 10.96 31.85 10.96L31.85 10.96ZM31.12 11.84Q30.51 11.84 30.02 12.24Q29.54 12.63 29.27 13.24Q28.99 13.86 28.99 14.52L28.99 14.52Q28.99 15.39 29.40 16.00L29.40 16.00Q29.99 15.74 30.67 15.20Q31.36 14.66 31.84 14.03Q32.31 13.40 32.31 12.88L32.31 12.88Q32.31 11.84 31.12 11.84L31.12 11.84ZM42.83 10.96Q43.25 10.96 43.48 11.24Q43.71 11.51 43.71 12.15L43.71 12.15L43.71 16.91Q43.71 17.12 43.81 17.26Q43.90 17.39 44.07 17.39L44.07 17.39Q44.24 17.39 44.44 17.25Q44.63 17.11 44.81 16.84L44.81 16.84L45.04 17.05Q44.74 17.68 44.34 17.93Q43.93 18.17 44.18 18.17Q44.44 18.16 43.58 18.16L43.58 18.16Q42.42 18.16 42.42 16.74L42.42 16.74L42.42 12.88Q42.42 12.74 42.35 12.64Q42.28 12.54 42.17 12.54L42.17 12.54Q41.86 12.54 41.50 13.22Q41.13 13.89 40.88 15.11Q40.63 16.34 40.63 17.92L40.63 17.92L39.35 18.28L39.35 12.88Q39.35 12.74 39.28 12.64Q39.21 12.54 39.12 12.54L39.12 12.54Q38.84 12.54 38.46 13.22Q38.09 13.90 37.82 15.13Q37.55 16.35 37.55 17.92L37.55 17.92L36.34 18.28L36.34 12.29Q36.34 12.05 36.22 11.91Q36.11 11.77 35.92 11.77L35.92 11.77Q35.57 11.77 35.21 12.38L35.21 12.38L34.99 12.15Q35.28 11.52 35.69 11.25Q36.09 10.98 36.18 10.97Q36.27 10.96 36.46 10.96L36.46 10.96Q37.13 10.96 37.37 11.25Q37.60 11.54 37.60 12.01L37.60 12.01L37.60 14.35L37.65 14.35Q38.00 12.82 38.59 11.89Q39.19 10.96 39.77 10.96L39.77 10.96Q40.21 10.96 40.42 11.23Q40.64 11.49 40.64 12.15L40.64 12.15L40.64 14.35L40.73 14.35Q41.08 12.82 41.66 11.89Q42.24 10.96 42.83 10.96L42.83 10.96ZM47.82 17.50Q47.82 17.85 47.57 18.09Q47.32 18.33 46.97 18.33L46.97 18.33Q46.62 18.33 46.37 18.09Q46.12 17.85 46.12 17.50L46.12 17.50Q46.12 17.15 46.37 16.90Q46.62 16.65 46.97 16.65L46.97 16.65Q47.32 16.65 47.57 16.90Q47.82 17.15 47.82 17.50L47.82 17.50Z"></path></g><!----><g data-v-423bf9ae="" id="68277dac-c518-410a-b207-cfedc7799472" transform="matrix(2.25,0,0,2.25,-9,-27)" stroke="none" fill="#E96D77"><path d="M21 22.346L13.605 29h14.79L21 22.346zM29 22h-3v2.154l3 2.7V22zM19 36h4v5h-4z"></path><path d="M17 35a1 1 0 011-1h6a1 1 0 011 1v6h5V31H12v10h5z"></path><circle cx="37" cy="32" r="1"></circle><path d="M59 12H5a1 1 0 00-1 1v38a1 1 0 001 1h54a1 1 0 001-1V13a1 1 0 00-1-1zm-7 37a1 1 0 01-1 1H7a1 1 0 01-1-1V15a1 1 0 011-1h44a1 1 0 011 1zm4-13.25a2 2 0 112-2 2 2 0 01-2 2z"></path><circle cx="37" cy="40" r="1"></circle><circle cx="37" cy="24" r="1"></circle><path d="M8 48h42V16H8zm34-25h6v2h-6zm0 8h6v2h-6zm0 9h6v2h-6zm-5-19a3 3 0 11-3 3 3 3 0 013-3zm0 8a3 3 0 11-3 3 3 3 0 013-3zm0 8a3 3 0 11-3 3 3 3 0 013-3zm-27-7c0-.023.011-.042.013-.064a1.013 1.013 0 01.053-.266 1.052 1.052 0 01.043-.105 1.014 1.014 0 01.142-.211c.022-.025.038-.052.062-.075.007-.007.011-.016.018-.022l10-9a1 1 0 011.338 0L24 22.355V21a1 1 0 011-1h5a1 1 0 011 1v7.655l.669.6c.007.006.011.015.018.022.024.023.04.05.062.075a1.014 1.014 0 01.142.211.979.979 0 01.043.106 1 1 0 01.053.265c0 .022.013.041.013.064V42a1 1 0 01-1 1H11a1 1 0 01-1-1z"></path></g><!----></svg>